<?xml version="1.0" encoding="utf-8"?>
<!-- Generator: Adobe Illustrator 15.0.0, SVG Export Plug-In . SVG Version: 6.00 Build 0)  -->
<!DOCTYPE svg PUBLIC "-//W3C//DTD SVG 1.1//EN" "http://www.w3.org/Graphics/SVG/1.1/DTD/svg11.dtd">
<svg version="1.1" xmlns="http://www.w3.org/2000/svg" xmlns:xlink="http://www.w3.org/1999/xlink" x="0px" y="0px"
	 width="47.461px" height="47.461px" viewBox="0 0 47.461 47.461" enable-background="new 0 0 47.461 47.461" xml:space="preserve">
<g id="Layer_2" display="none">
	<rect x="1.687" y="0.179" display="inline" fill="#EF3824" width="45.178" height="39.993"/>
</g>
<g id="Capa_1">
	<g>
		<g>
			<path d="M25.669,31.108c0,0.391-0.792,0.707-1.769,0.707s-1.769-0.316-1.769-0.707s0.792-0.707,1.769-0.707
				S25.669,30.718,25.669,31.108z M39.105,29.253c0,2.078-1.309,3.844-3.104,4.434c-2.305,4.422-6.939,7.279-12.08,7.279
				c-5.136,0-9.764-2.85-12.07-7.264c-1.822-0.57-3.156-2.348-3.156-4.449c0-1.096,0.366-2.1,0.972-2.896v-6.063
				c0-5.468,4.433-9.9,9.901-9.9h0.399l3.714-2.916c0.116-0.091,0.279-0.101,0.405-0.022s0.19,0.227,0.159,0.373l-0.534,2.566h4.521
				c5.468,0,9.9,4.433,9.9,9.9v6.06C38.739,27.147,39.105,28.157,39.105,29.253z M36.276,29.253c0-1-0.704-1.813-1.583-1.813
				c-0.241,0.414-0.519,0.813-0.834,1.193c0.191-0.66,0.32-1.328,0.391-2.002c-0.847-0.813-1.588-2.173-1.979-3.802
				c-0.25-1.041-0.315-2.044-0.233-2.925c-1.199,2.024-5.746,4.601-8.138,4.601c-2.312,0-6.896-2.566-8.124-4.588
				c-0.005,0.004-0.008,0.008-0.012,0.013c0.079,0.875,0.013,1.869-0.235,2.9c-0.391,1.628-1.132,2.988-1.979,3.801
				c0.07,0.672,0.198,1.344,0.391,2.002c-0.314-0.379-0.592-0.779-0.834-1.193c-0.878,0-1.583,0.813-1.583,1.813
				s0.706,1.811,1.585,1.811c0.22,0,0.428-0.049,0.618-0.141c1.437,4.193,5.454,7.213,10.195,7.213
				c4.734,0,8.747-3.016,10.189-7.201c0.18,0.08,0.371,0.129,0.577,0.129C35.571,31.063,36.276,30.253,36.276,29.253z
				 M19.097,25.182c-0.877,0-1.591,0.713-1.591,1.591c0,0.877,0.714,1.592,1.591,1.592s1.591-0.715,1.591-1.592
				C20.688,25.895,19.975,25.182,19.097,25.182z M28.703,25.182c-0.876,0-1.591,0.713-1.591,1.591c0,0.877,0.715,1.592,1.591,1.592
				c0.878,0,1.591-0.715,1.591-1.592C30.294,25.895,29.581,25.182,28.703,25.182z"/>
		</g>
	</g>
</g>
</svg>
